<?xml version="1.0" standalone="no"?>
<!DOCTYPE svg PUBLIC "-//W3C//DTD SVG 20010904//EN"
 "http://www.w3.org/TR/2001/REC-SVG-20010904/DTD/svg10.dtd">
<svg version="1.0" xmlns="http://www.w3.org/2000/svg"
 width="2048.000000pt" height="2048.000000pt" viewBox="0 0 2048.000000 2048.000000"
 preserveAspectRatio="xMidYMid meet">
<metadata>
Created by potrace 1.16, written by Peter Selinger 2001-2019
</metadata>
<g transform="translate(0.000000,2048.000000) scale(1.000000,-1.000000)"
fill="#000000" stroke="none">
<path d="M0 1024 l0 -1024 1024 0 1024 0 0 1024 0 1024 -1024 0 -1024 0 0
-1024z m390 46 l0 -569 -42 0 -42 0 0 569 0 568 42 0 43 0 -1 -568z m160 0 l0
-569 -39 0 -40 0 0 512 c0 282 0 531 0 553 -1 22 -1 47 0 56 l0 16 40 0 39 0
0 -568z m157 343 l0 -226 40 0 40 0 0 -123 1 -123 36 -1 c20 0 37 1 39 1 l2 0
0 82 1 82 39 0 40 1 0 96 0 97 19 0 20 0 0 46 1 47 39 0 39 0 0 -46 0 -47 20
0 20 0 0 -96 c0 -87 0 -97 2 -97 0 -1 18 -1 40 -1 l38 0 0 -82 0 -82 34 0 c18
0 36 0 39 0 l5 0 0 123 0 123 40 0 40 0 0 226 0 225 40 0 39 0 0 -389 0 -390
-40 0 -40 0 0 -96 0 -97 -39 0 -40 0 0 -82 0 -83 -39 0 -39 0 0 83 0 82 -40 0
-40 0 0 97 0 96 -19 0 -20 0 0 41 0 41 -40 0 -40 0 0 -41 0 -41 -20 0 -20 0 0
-96 0 -97 -39 0 c-37 0 -40 0 -40 -2 0 -4 -1 -20 -1 -89 l0 -74 -38 0 -39 0 0
83 0 82 -39 0 -40 0 0 97 0 96 -40 0 -40 0 0 390 0 389 40 0 39 0 0 -225z
m870 -343 l0 -569 -39 0 -39 0 0 10 c0 5 -1 261 -1 568 l0 559 39 0 40 0 0
-568z m165 0 l0 -569 -42 0 -42 0 0 569 0 568 42 0 42 0 0 -568z"/>
</g>
</svg>
